<svg width="224" height="64" viewBox="0 0 224 64" fill="none" xmlns="http://www.w3.org/2000/svg">
<path d="M94.2 34.2H89.56V53H82.72V34.2H77.8L78.2 28.16H94.6L94.2 34.2ZM97.6463 30.76C99.1929 28.76 101.713 27.76 105.206 27.76C108.7 27.76 111.193 28.7467 112.686 30.72C114.206 32.6933 114.966 35.9067 114.966 40.36C114.966 44.7867 114.193 48.0667 112.646 50.2C111.1 52.3333 108.593 53.4 105.126 53.4C101.66 53.4 99.1663 52.3467 97.6463 50.24C96.1263 48.1333 95.3663 44.8667 95.3663 40.44C95.3663 35.9867 96.1263 32.76 97.6463 30.76ZM108.086 40.36C108.086 37.9067 107.886 36.2533 107.486 35.4C107.113 34.52 106.326 34.08 105.126 34.08C103.953 34.08 103.193 34.52 102.846 35.4C102.5 36.2533 102.326 37.8933 102.326 40.32V41.28C102.326 43.8667 102.513 45.5733 102.886 46.4C103.286 47.2 104.073 47.6 105.246 47.6C106.446 47.6 107.22 47.2133 107.566 46.44C107.913 45.6667 108.086 44.0667 108.086 41.64V40.36ZM136.17 40.04C136.17 48.68 132.756 53 125.93 53H117.69V28.16H126.09C129.743 28.16 132.33 29.1867 133.85 31.24C135.396 33.2667 136.17 36.2 136.17 40.04ZM125.81 47.24C127.223 47.24 128.13 46.7467 128.53 45.76C128.956 44.7467 129.17 43.0667 129.17 40.72C129.17 38.3467 128.943 36.6667 128.49 35.68C128.063 34.6933 127.13 34.2 125.69 34.2H124.49V47.24H125.81ZM140.224 30.76C141.771 28.76 144.291 27.76 147.784 27.76C151.278 27.76 153.771 28.7467 155.264 30.72C156.784 32.6933 157.544 35.9067 157.544 40.36C157.544 44.7867 156.771 48.0667 155.224 50.2C153.678 52.3333 151.171 53.4 147.704 53.4C144.238 53.4 141.744 52.3467 140.224 50.24C138.704 48.1333 137.944 44.8667 137.944 40.44C137.944 35.9867 138.704 32.76 140.224 30.76ZM150.664 40.36C150.664 37.9067 150.464 36.2533 150.064 35.4C149.691 34.52 148.904 34.08 147.704 34.08C146.531 34.08 145.771 34.52 145.424 35.4C145.078 36.2533 144.904 37.8933 144.904 40.32V41.28C144.904 43.8667 145.091 45.5733 145.464 46.4C145.864 47.2 146.651 47.6 147.824 47.6C149.024 47.6 149.798 47.2133 150.144 46.44C150.491 45.6667 150.664 44.0667 150.664 41.64V40.36ZM186.506 53H179.826L179.066 49.08H174.346L173.586 53H167.226L171.786 28.16H181.946L186.506 53ZM178.306 44.4L176.906 35.52H176.626L175.226 44.4H178.306ZM197.148 44.88H195.308V53H188.588V28.16H196.708C199.561 28.16 201.681 28.8133 203.068 30.12C204.455 31.4267 205.148 33.5733 205.148 36.56C205.148 39.5467 204.495 41.68 203.188 42.96C201.881 44.24 199.868 44.88 197.148 44.88ZM197.908 39.48C198.148 39.0267 198.268 38.2133 198.268 37.04C198.268 35.8667 198.135 35.04 197.868 34.56C197.601 34.08 197.068 33.84 196.268 33.84H195.308V40.16H196.428C197.175 40.16 197.668 39.9333 197.908 39.48ZM215.703 44.88H213.863V53H207.143V28.16H215.263C218.116 28.16 220.236 28.8133 221.623 30.12C223.009 31.4267 223.703 33.5733 223.703 36.56C223.703 39.5467 223.049 41.68 221.743 42.96C220.436 44.24 218.423 44.88 215.703 44.88ZM216.463 39.48C216.703 39.0267 216.823 38.2133 216.823 37.04C216.823 35.8667 216.689 35.04 216.423 34.56C216.156 34.08 215.623 33.84 214.823 33.84H213.863V40.16H214.983C215.729 40.16 216.223 39.9333 216.463 39.48Z" fill="url(#paint0_linear_20_6)"/>
<path fill-rule="evenodd" clip-rule="evenodd" d="M28.0229 63.8831L77 14.9061L62.0939 0L28.1189 33.9751L14.9061 20.7623L0 35.6684L13.2128 48.8811L13.1169 48.9771L28.0229 63.8831Z" fill="url(#paint1_linear_20_6)"/>
<defs>
<linearGradient id="paint0_linear_20_6" x1="151" y1="20" x2="151" y2="64" gradientUnits="userSpaceOnUse">
<stop stop-color="white"/>
<stop offset="1" stop-color="white" stop-opacity="0"/>
</linearGradient>
<linearGradient id="paint1_linear_20_6" x1="38.5" y1="0" x2="38.5" y2="63.8831" gradientUnits="userSpaceOnUse">
<stop stop-color="#8257E5"/>
<stop offset="1" stop-color="#2F234C"/>
</linearGradient>
</defs>
</svg>
